<svg xmlns="http://www.w3.org/2000/svg" width="423" height="365" viewBox="0 0 423 365">
<g>
<path d="M 66.73 162.42 C66.21,166.86 65.44,177.93 65.03,187.00 L 64.28 203.50 L 64.54 182.50 C64.77,164.42 65.16,159.83 67.37,149.50 C71.78,128.81 79.41,109.19 89.59,92.38 C103.98,68.62 126.25,45.83 146.50,34.13 L 150.50 31.81 L 147.91 34.16 C142.76,38.82 139.45,41.21 136.79,42.18 C135.30,42.72 133.83,43.96 133.52,44.93 C133.21,45.90 131.85,47.21 130.48,47.83 C129.12,48.45 128.00,49.41 128.00,49.95 C128.00,50.50 126.63,51.66 124.95,52.53 C121.83,54.14 113.11,62.62 109.50,67.56 C108.40,69.06 106.34,71.46 104.92,72.89 C101.67,76.17 91.00,91.45 91.00,92.83 C91.00,93.40 90.41,94.45 89.68,95.18 C88.96,95.91 86.45,100.78 84.11,106.00 C81.78,111.22 78.99,117.35 77.93,119.61 C76.87,121.87 76.00,124.24 76.00,124.87 C76.00,125.51 75.62,126.81 75.15,127.76 C72.98,132.16 70.73,140.04 70.04,145.61 C69.63,148.98 68.92,152.31 68.48,153.03 C68.04,153.75 67.25,157.97 66.73,162.42 ZM 282.46 81.54 C283.91,83.44 284.97,84.98 284.80,84.96 C284.64,84.94 281.35,82.01 277.50,78.46 C272.76,74.08 267.20,70.31 260.25,66.75 C254.62,63.86 250.01,61.22 250.00,60.88 C250.00,59.87 260.26,58.81 260.91,59.75 C261.23,60.23 264.42,62.26 268.00,64.28 C271.58,66.29 276.30,69.57 278.50,71.57 C281.43,74.24 281.76,74.77 279.70,73.55 C278.09,72.59 276.06,72.16 274.88,72.54 C272.96,73.15 272.94,73.28 274.56,75.07 C275.50,76.10 277.06,77.20 278.04,77.51 C279.02,77.82 281.01,79.64 282.46,81.54 ZM 297.61 178.23 C295.43,179.68 290.20,178.98 287.86,176.93 C286.10,175.39 285.99,175.11 287.44,175.83 C289.68,176.94 291.33,175.25 294.96,168.10 C296.77,164.53 296.98,163.26 296.09,161.31 C295.49,159.99 295.02,158.14 295.04,157.20 C295.07,156.27 295.66,157.11 296.36,159.07 C297.07,161.03 298.62,163.62 299.82,164.82 C301.02,166.02 302.00,167.92 302.00,169.05 C302.00,171.40 299.26,177.15 297.61,178.23 ZM 171.75 299.37 C170.51,299.70 169.27,299.97 169.00,299.97 C167.82,299.96 161.06,295.24 155.71,290.67 C149.94,285.75 148.81,283.76 153.09,286.05 C154.98,287.06 155.55,286.97 156.64,285.47 C157.86,283.81 157.99,283.80 158.60,285.40 C158.96,286.34 162.57,289.35 166.63,292.09 C170.68,294.82 174.00,297.44 174.00,297.91 C174.00,298.38 172.99,299.04 171.75,299.37 ZM 314.06 51.08 C316.66,54.73 316.24,54.79 312.70,51.25 C310.44,49.00 309.78,48.76 309.05,49.94 C308.31,51.12 307.88,51.14 306.59,50.07 C305.73,49.36 305.23,48.44 305.48,48.03 C306.52,46.35 292.51,36.76 284.19,33.45 C281.40,32.34 280.07,31.27 280.40,30.40 C280.69,29.66 280.15,28.60 279.21,28.06 C278.27,27.51 277.97,27.05 278.54,27.03 C280.37,26.98 297.25,37.08 304.74,42.71 C308.72,45.71 312.91,49.47 314.06,51.08 ZM 245.27 80.79 C246.80,81.53 247.00,81.89 245.92,81.93 C243.74,82.03 240.00,77.81 240.00,75.25 C240.00,71.06 241.97,67.91 245.53,66.42 C248.70,65.10 249.43,65.11 252.50,66.57 C254.38,67.46 256.20,69.05 256.53,70.10 C256.87,71.15 258.34,73.46 259.82,75.22 L 262.50 78.44 L 259.78 76.47 C258.29,75.39 257.05,73.92 257.03,73.21 C256.99,71.30 245.42,72.15 243.37,74.20 C241.38,76.19 242.30,79.35 245.27,80.79 ZM 139.17 196.40 C140.30,197.19 141.06,198.22 140.86,198.67 C140.66,199.13 139.55,198.60 138.40,197.50 C131.36,190.80 133.48,181.77 142.43,180.32 C145.54,179.81 146.55,180.15 149.05,182.55 C151.34,184.74 151.96,186.18 151.84,188.94 L 151.68 192.50 L 151.26 189.00 C150.81,185.18 148.52,182.00 146.24,182.00 C144.45,182.00 141.06,186.19 138.81,191.20 C137.17,194.85 137.18,195.01 139.17,196.40 ZM 199.20 292.20 C198.67,292.73 196.50,293.36 194.37,293.62 C191.35,293.97 189.29,293.40 185.00,290.99 C178.54,287.36 176.32,285.42 179.87,286.49 C184.23,287.81 184.43,284.88 180.25,281.14 C177.31,278.50 177.15,278.21 179.50,279.78 C181.15,280.88 183.34,282.71 184.37,283.85 C185.39,284.98 189.37,287.11 193.20,288.58 C197.65,290.28 199.82,291.58 199.20,292.20 ZM 121.52 225.05 C121.86,226.12 121.71,227.00 121.20,227.00 C120.68,227.00 119.94,222.53 119.55,217.06 C118.96,208.63 119.12,206.55 120.62,203.38 C122.33,199.79 122.42,199.74 123.04,202.07 C124.29,206.83 124.90,215.00 123.99,215.00 C122.68,215.00 120.78,222.73 121.52,225.05 ZM 367.66 151.00 C366.62,147.86 366.45,148.80 366.00,160.00 L 365.50 172.50 L 364.76 154.00 C364.35,143.82 363.76,134.15 363.45,132.50 C362.23,126.09 365.00,132.87 366.98,141.14 C369.23,150.53 369.69,157.11 367.66,151.00 ZM 357.57 130.05 C357.26,131.40 356.89,136.55 356.75,141.50 C356.58,147.56 356.29,144.46 355.85,132.00 C355.49,121.82 354.86,112.38 354.46,111.00 C353.95,109.25 354.05,108.80 354.79,109.50 C355.93,110.57 360.01,125.62 359.98,128.67 C359.97,130.17 359.80,130.24 359.05,129.05 C358.33,127.90 358.02,128.11 357.57,130.05 ZM 314.98 135.42 C315.98,140.23 315.89,141.31 314.18,144.64 L 312.25 148.41 L 311.51 143.96 C311.10,141.51 310.32,138.65 309.77,137.60 C309.01,136.16 309.16,135.49 310.39,134.80 C311.27,134.31 312.00,133.27 312.00,132.51 C312.00,131.74 312.42,130.86 312.93,130.55 C313.44,130.23 314.36,132.42 314.98,135.42 ZM 73.09 229.78 C73.74,236.53 74.02,242.31 73.71,242.62 C73.14,243.19 69.61,232.16 68.55,226.50 L 67.99 223.50 L 69.45 226.50 C70.82,229.31 70.92,228.69 71.15,216.50 C71.28,209.35 71.51,206.65 71.65,210.50 C71.79,214.35 72.44,223.03 73.09,229.78 ZM 133.50 323.00 C133.84,323.55 133.95,324.00 133.75,324.00 C133.00,324.00 120.44,313.26 119.04,311.42 C118.23,310.36 119.02,310.82 120.79,312.44 C124.61,315.93 125.02,315.00 121.50,310.82 C117.57,306.15 118.57,305.51 123.50,309.55 C125.97,311.58 128.00,313.48 128.00,313.78 C128.00,314.07 127.10,313.49 125.99,312.49 C124.89,311.50 123.77,310.89 123.51,311.16 C122.72,311.95 129.22,317.65 133.49,319.90 C136.71,321.60 137.03,322.00 135.18,322.00 C133.90,322.00 133.16,322.44 133.50,323.00 ZM 86.05 266.63 C86.54,267.93 86.57,269.00 86.11,269.00 C85.05,269.00 81.20,259.83 79.98,254.42 C79.48,252.18 78.77,249.48 78.40,248.42 C77.77,246.60 77.82,246.61 79.35,248.50 C80.64,250.10 81.14,250.23 81.85,249.15 C82.44,248.25 83.14,250.56 83.94,256.03 C84.61,260.55 85.55,265.32 86.05,266.63 ZM 341.81 84.19 C340.44,83.11 340.02,83.13 339.33,84.32 C338.74,85.34 337.59,83.62 335.37,78.38 C333.64,74.32 332.52,71.01 332.87,71.03 C333.56,71.06 338.62,77.72 341.60,82.50 C343.14,84.98 343.18,85.28 341.81,84.19 ZM 282.25 284.19 C281.90,283.19 281.31,283.31 279.77,284.69 C278.66,285.68 279.87,283.45 282.47,279.73 C285.06,276.00 287.55,271.73 288.01,270.23 C288.63,268.15 288.85,267.98 288.91,269.52 C288.96,270.63 287.88,273.19 286.50,275.21 C283.41,279.76 283.35,280.98 286.25,280.25 C288.34,279.72 288.29,279.90 285.60,282.59 C283.60,284.60 282.56,285.09 282.25,284.19 ZM 150.45 324.13 C152.02,325.56 148.74,325.07 146.00,323.46 L 143.50 321.98 L 146.50 322.62 C148.15,322.97 149.93,323.65 150.45,324.13 Z" fill="rgb(221,139,84)"/>
<path d="M 66.73 162.42 C67.25,157.97 68.04,153.75 68.48,153.03 C68.92,152.31 69.63,148.98 70.04,145.61 C70.73,140.04 72.98,132.16 75.15,127.76 C75.62,126.81 76.00,125.51 76.00,124.87 C76.00,124.24 76.87,121.87 77.93,119.61 C78.99,117.35 81.78,111.22 84.11,106.00 C86.45,100.78 88.96,95.91 89.68,95.18 C90.41,94.45 91.00,93.40 91.00,92.83 C91.00,91.45 101.67,76.17 104.92,72.89 C106.34,71.46 108.40,69.06 109.50,67.56 C113.11,62.62 121.83,54.14 124.95,52.53 C126.63,51.66 128.00,50.50 128.00,49.95 C128.00,49.41 129.12,48.45 130.48,47.83 C131.85,47.21 133.21,45.90 133.52,44.93 C133.83,43.96 135.30,42.72 136.79,42.18 C139.45,41.21 142.76,38.82 147.91,34.16 L 149.81 32.43 C152.74,30.83 155.82,29.27 159.11,27.70 C183.64,16.01 209.39,11.77 236.03,15.04 C250.75,16.85 265.38,21.08 278.51,27.03 C277.98,27.06 278.29,27.52 279.21,28.06 C280.15,28.60 280.69,29.66 280.40,30.40 C280.07,31.27 281.40,32.34 284.19,33.45 C288.42,35.13 294.11,38.43 298.56,41.50 C293.43,38.19 286.30,34.32 281.00,32.16 C268.01,26.86 258.60,25.00 244.75,25.00 C237.92,25.00 232.05,25.28 231.70,25.63 C231.35,25.98 231.52,27.10 232.07,28.13 C232.97,29.81 234.40,30.00 246.29,30.00 C260.98,30.00 271.22,31.60 281.61,35.50 C288.75,38.19 297.75,42.91 301.88,46.14 C303.92,47.73 305.37,48.26 305.53,47.76 C305.54,47.87 305.53,47.96 305.48,48.03 C305.23,48.44 305.73,49.36 306.59,50.07 C307.88,51.14 308.31,51.12 309.05,49.94 C309.78,48.76 310.44,49.00 312.70,51.25 C315.64,54.18 316.42,54.65 315.13,52.64 C316.17,53.81 317.16,54.99 318.10,56.19 C324.61,64.51 332.99,78.54 333.01,81.12 C333.01,81.88 333.69,83.79 334.51,85.37 C336.33,88.87 338.35,96.87 340.04,107.29 C342.47,122.35 339.79,147.85 333.85,166.00 C328.74,181.62 323.81,192.55 311.51,215.50 C296.31,243.88 293.00,250.31 293.00,251.51 C293.00,252.25 294.36,256.25 296.03,260.41 L 299.06 267.97 L 296.91 272.24 C294.17,277.68 292.12,280.00 290.03,280.00 C287.26,280.00 284.00,283.82 284.00,287.08 C284.00,290.76 287.92,295.00 291.31,295.00 C292.63,295.00 294.94,293.85 296.45,292.45 C298.79,290.29 299.14,289.29 298.79,285.70 C298.45,282.19 298.99,280.54 302.08,275.65 L 305.77 269.79 L 303.29 263.65 C301.18,258.44 299.85,255.79 299.76,253.09 C299.65,249.66 301.56,246.16 306.45,237.18 C307.16,235.89 307.93,234.48 308.76,232.94 C334.86,184.73 341.90,166.88 344.99,141.03 C347.41,120.74 345.06,99.23 339.04,86.50 C338.14,84.60 337.24,82.63 336.42,80.76 C337.97,84.12 338.84,85.16 339.33,84.32 C340.02,83.13 340.44,83.11 341.81,84.19 C342.77,84.95 343.04,85.04 342.59,84.17 C348.64,94.68 351.97,109.14 352.72,128.00 C353.96,159.33 345.95,185.75 322.55,227.50 C315.02,240.94 313.47,243.00 310.90,243.00 C308.66,243.00 306.00,246.69 306.00,249.79 C306.00,252.38 307.70,256.10 309.40,257.23 C311.75,258.81 316.14,257.95 318.67,255.42 C320.92,253.17 321.17,252.27 320.64,248.42 C320.08,244.29 320.57,243.03 328.39,228.68 C338.47,210.18 343.59,198.94 348.29,185.00 C355.16,164.66 355.50,162.52 355.50,139.50 C355.50,127.95 355.17,116.34 354.76,113.70 C354.58,112.49 354.46,111.54 354.41,110.84 C354.43,110.89 354.44,110.94 354.46,111.00 C354.86,112.38 355.49,121.82 355.85,132.00 C356.29,144.46 356.58,147.56 356.75,141.50 C356.89,136.55 357.26,131.40 357.57,130.05 C358.02,128.11 358.33,127.90 359.05,129.05 C359.80,130.24 359.97,130.17 359.98,128.67 C360.01,125.62 355.93,110.57 354.79,109.50 C354.69,109.41 354.61,109.34 354.53,109.28 C355.03,108.89 356.69,113.46 358.65,121.26 C361.31,131.90 361.46,133.67 361.45,154.50 C361.43,173.54 361.13,177.89 359.18,186.82 C355.79,202.41 350.59,216.88 342.43,233.50 C338.38,241.75 334.82,249.98 334.51,251.78 C333.45,258.06 309.99,286.64 294.76,300.18 C279.85,313.45 273.01,318.15 257.00,326.15 C246.35,331.46 246.31,331.47 235.10,330.85 C232.61,330.71 231.19,331.28 229.85,332.94 C227.31,336.08 227.52,337.67 230.92,341.08 C234.74,344.90 237.54,344.77 241.48,340.59 C243.43,338.52 247.79,335.90 252.59,333.90 C269.82,326.73 285.46,316.14 301.75,300.59 C318.36,284.74 340.00,257.42 340.00,252.31 C340.00,251.02 342.19,245.82 344.87,240.74 C359.09,213.80 365.01,190.82 364.99,162.63 C364.99,161.52 364.98,160.36 364.97,159.19 L 365.50 172.50 L 366.00 160.00 C366.45,148.80 366.62,147.86 367.66,151.00 C369.00,155.05 369.26,153.53 368.62,149.32 C368.79,150.20 368.95,151.10 369.11,152.00 C371.76,167.02 371.95,193.91 369.50,208.50 C363.17,246.25 347.09,277.86 320.96,303.97 C307.08,317.85 294.58,326.95 278.50,334.89 C266.14,340.99 256.01,344.59 242.98,347.49 C235.73,349.10 207.94,350.33 200.00,349.39 C187.71,347.94 178.32,345.49 162.16,339.54 C155.37,337.04 143.20,330.22 133.85,323.83 C133.84,323.65 133.71,323.35 133.50,323.00 C133.16,322.44 133.90,322.00 135.18,322.00 C136.42,322.00 136.69,321.82 135.75,321.19 C137.16,322.03 138.56,322.92 139.50,323.59 C146.26,328.42 170.84,335.93 180.16,336.02 C181.45,336.03 183.62,336.92 185.00,338.00 C189.87,341.81 197.00,339.47 197.00,334.06 C197.00,328.78 188.28,325.42 183.78,328.96 C180.63,331.44 176.53,331.54 166.21,329.41 C159.96,328.12 154.49,326.64 149.60,324.89 C150.73,325.12 151.30,324.90 150.45,324.13 C149.93,323.65 148.15,322.97 146.50,322.62 L 143.50 321.98 L 146.00 323.46 C146.13,323.54 146.27,323.61 146.41,323.69 C141.65,321.77 137.46,319.57 133.66,317.00 C131.21,315.35 128.77,314.00 128.23,314.00 C127.69,314.00 126.68,313.33 126.00,312.50 C127.10,313.50 128.00,314.07 128.00,313.78 C128.00,313.48 125.97,311.58 123.50,309.55 C118.57,305.51 117.57,306.15 121.50,310.82 C125.02,315.00 124.61,315.93 120.79,312.44 C119.02,310.82 118.23,310.36 119.04,311.42 C119.07,311.47 119.12,311.52 119.17,311.58 C111.86,304.42 103.58,295.34 100.68,290.97 C85.71,268.42 83.79,227.51 96.06,192.40 C102.96,172.66 125.44,130.00 128.95,130.00 C129.93,130.00 131.92,129.07 133.37,127.93 C135.40,126.33 136.00,124.97 136.00,122.00 C136.00,116.93 132.79,114.19 127.55,114.80 C122.64,115.38 120.52,118.59 121.40,124.11 C121.98,127.75 121.60,128.92 117.84,134.85 C112.65,143.04 93.00,181.61 93.00,183.61 C93.00,184.42 92.37,186.07 91.61,187.29 C90.84,188.50 88.70,195.57 86.86,203.00 C83.56,216.24 83.50,216.90 83.57,237.50 C83.60,246.82 83.76,252.93 84.12,257.18 C84.06,256.79 84.00,256.41 83.94,256.03 C83.14,250.56 82.44,248.25 81.85,249.15 C81.14,250.23 80.64,250.10 79.35,248.50 C79.06,248.14 78.82,247.85 78.63,247.63 C78.27,245.35 77.89,242.71 77.47,239.50 C72.39,200.99 81.21,163.16 103.64,127.34 C107.14,121.75 110.00,116.38 110.00,115.41 C110.00,114.43 109.28,111.05 108.39,107.90 L 106.78 102.16 L 111.62 95.33 C128.77,71.14 149.26,51.95 171.83,38.95 C179.01,34.82 179.25,34.76 183.21,36.07 C187.19,37.38 187.29,37.35 190.13,34.19 C193.43,30.49 193.73,28.06 191.25,25.22 C187.65,21.09 181.22,21.98 178.68,26.96 C178.03,28.24 172.05,32.70 165.40,36.89 C141.13,52.15 124.69,67.85 106.76,92.88 C101.61,100.06 101.10,102.60 103.20,110.46 C104.29,114.55 104.19,115.32 102.05,119.22 C100.76,121.57 99.13,124.18 98.42,125.00 C95.29,128.67 83.84,153.50 80.66,163.50 C73.53,185.95 71.36,201.50 72.67,225.22 C72.18,219.51 71.76,213.52 71.65,210.50 C71.51,206.65 71.28,209.35 71.15,216.50 C70.92,228.69 70.82,229.31 69.45,226.50 L 68.16 223.85 C67.40,220.26 66.64,216.31 65.91,212.14 C65.25,208.38 64.77,204.12 64.46,199.56 L 65.03 187.00 C65.44,177.93 66.21,166.86 66.73,162.42 ZM 205.50 277.60 C210.59,279.21 219.70,279.27 223.20,277.70 C231.35,274.07 252.73,251.83 261.78,237.58 C265.97,230.98 271.60,218.92 273.26,213.00 C277.67,197.25 278.29,191.98 277.67,175.50 C276.46,143.61 271.57,124.03 260.06,105.00 C254.10,95.16 245.13,86.38 236.61,82.05 C230.57,78.99 228.94,78.61 221.62,78.56 C214.07,78.50 212.77,78.81 205.79,82.26 C190.41,89.86 177.39,109.23 168.12,138.33 C162.47,156.07 160.74,166.93 160.78,184.50 C160.84,206.67 163.36,220.80 170.44,238.70 C175.41,251.28 179.89,258.34 187.84,266.12 C194.84,272.97 198.62,275.43 205.50,277.60 ZM 155.83 314.97 C156.75,315.50 161.86,315.95 167.18,315.97 C189.41,316.04 210.24,308.04 233.45,290.52 C246.35,280.78 257.32,269.58 268.72,254.50 C273.47,248.23 277.21,244.24 278.77,243.80 C287.20,241.43 288.42,232.01 280.67,229.06 C275.14,226.96 270.31,231.34 271.31,237.53 C271.75,240.25 271.00,241.99 266.66,248.31 C252.43,269.02 231.00,288.49 211.04,298.84 C193.90,307.73 178.32,311.70 164.61,310.67 C153.65,309.84 149.12,308.44 148.02,305.54 C144.97,297.53 134.00,298.66 134.00,306.98 C134.00,311.86 137.96,315.56 141.98,314.45 C145.47,313.48 153.82,313.79 155.83,314.97 ZM 164.04 105.81 C166.70,108.67 171.08,108.64 173.68,105.75 C176.76,102.33 177.01,101.53 176.08,98.28 C175.31,95.60 175.78,94.53 180.36,88.40 C193.73,70.51 211.61,57.27 231.50,50.55 C237.64,48.47 242.21,47.71 251.18,47.28 C264.34,46.64 272.53,47.83 280.75,51.58 C285.06,53.54 286.00,54.42 286.00,56.49 C286.00,62.27 293.27,64.97 297.69,60.83 C299.98,58.67 300.79,53.74 299.23,51.40 C297.88,49.36 294.22,48.03 290.35,48.16 C288.16,48.23 282.61,46.84 277.50,44.95 C268.88,41.75 267.93,41.61 255.00,41.69 C243.15,41.75 240.46,42.10 233.00,44.50 C217.15,49.61 200.88,59.19 189.13,70.35 C186.73,72.63 181.42,78.66 177.34,83.75 C172.53,89.73 169.22,93.00 167.96,93.00 C162.63,93.00 160.03,101.51 164.04,105.81 ZM 297.61 178.23 C299.26,177.15 302.00,171.40 302.00,169.05 C302.00,167.92 301.02,166.02 299.82,164.82 C298.62,163.62 297.07,161.03 296.36,159.07 C295.84,157.61 295.38,156.77 295.17,156.82 C294.91,155.30 294.68,153.59 294.52,152.00 C293.33,139.74 285.95,113.59 280.14,101.00 C276.20,92.47 268.98,83.30 262.25,78.13 L 259.82 75.22 C258.34,73.46 256.87,71.15 256.53,70.10 C256.20,69.05 254.38,67.46 252.50,66.57 C249.43,65.11 248.70,65.10 245.53,66.42 C241.97,67.91 240.00,71.06 240.00,75.25 C240.00,77.81 243.74,82.03 245.92,81.93 C247.00,81.89 246.80,81.53 245.27,80.79 C243.59,79.98 242.57,78.61 242.35,77.22 C242.68,78.66 244.06,80.11 246.38,81.37 C249.15,82.86 250.18,82.97 251.98,82.01 C255.37,80.20 258.07,81.43 264.36,87.66 C274.44,97.67 282.27,117.13 288.03,146.50 C290.49,159.05 290.49,161.56 288.00,164.73 C285.60,167.78 285.39,173.25 287.59,175.45 C287.87,175.73 288.11,175.96 288.32,176.12 C288.04,176.08 287.74,175.98 287.44,175.83 C285.99,175.11 286.10,175.39 287.86,176.93 C290.20,178.98 295.43,179.68 297.61,178.23 ZM 199.20 292.20 C199.82,291.58 197.65,290.28 193.20,288.58 C189.37,287.11 185.39,284.98 184.37,283.85 C183.34,282.71 181.15,280.88 179.50,279.78 C177.15,278.21 177.31,278.50 180.25,281.14 C180.68,281.52 181.06,281.89 181.39,282.25 C180.86,281.72 180.24,281.16 179.53,280.58 C170.23,272.96 161.84,258.94 156.10,241.42 C152.71,231.05 148.46,212.16 147.56,203.43 C147.02,198.14 147.20,197.13 148.97,195.53 C151.62,193.13 151.51,187.68 149.71,184.48 C150.49,185.71 151.06,187.29 151.26,189.00 L 151.68 192.50 L 151.84 188.94 C151.96,186.18 151.34,184.74 149.05,182.55 C146.55,180.15 145.54,179.81 142.43,180.32 C133.48,181.77 131.36,190.80 138.40,197.50 C139.48,198.53 140.52,199.06 140.81,198.75 C141.31,200.08 141.69,201.98 142.04,204.79 C144.67,225.70 149.92,243.75 158.53,261.50 C164.25,273.27 172.10,283.26 177.49,285.61 C178.13,285.89 178.71,286.12 179.22,286.31 C176.65,285.70 178.99,287.62 185.00,290.99 C189.29,293.40 191.35,293.97 194.37,293.62 C196.50,293.36 198.67,292.73 199.20,292.20 ZM 141.14 109.37 C144.90,122.19 147.62,111.64 144.01,98.25 L 141.81 90.10 L 149.12 80.41 C160.92,64.78 176.88,51.95 196.93,41.99 C204.75,38.10 207.95,36.99 209.91,37.47 C217.29,39.32 217.59,39.28 220.34,36.01 C221.80,34.27 223.00,31.81 223.00,30.53 C223.00,26.85 219.80,23.67 216.20,23.78 C212.12,23.89 210.63,24.79 207.82,28.84 C206.19,31.18 203.17,33.22 197.65,35.69 C174.85,45.92 152.94,63.82 141.04,81.94 L 135.89 89.78 L 137.51 96.14 C138.40,99.64 140.03,105.59 141.14,109.37 ZM 171.75 299.37 C172.99,299.04 174.00,298.38 174.00,297.91 C174.00,297.44 170.68,294.82 166.63,292.09 C162.57,289.35 158.96,286.34 158.60,285.40 C157.99,283.80 157.86,283.81 156.64,285.47 C156.60,285.53 156.56,285.58 156.52,285.64 C156.37,284.46 155.03,282.36 152.46,279.50 C150.00,276.75 146.15,271.49 143.92,267.82 C140.57,262.31 140.04,260.79 140.93,259.14 C143.45,254.42 140.41,247.00 135.95,247.00 C135.01,247.00 133.80,246.44 133.27,245.75 C132.13,244.30 127.61,227.82 126.35,220.57 C125.40,215.05 123.83,213.85 122.52,217.34 C122.99,215.98 123.53,215.00 123.99,215.00 C124.90,215.00 124.29,206.83 123.04,202.07 C122.42,199.74 122.33,199.79 120.62,203.38 C119.12,206.55 118.96,208.63 119.55,217.06 C119.94,222.53 120.68,227.00 121.20,227.00 C121.53,227.00 121.70,226.64 121.70,226.10 C122.13,228.83 123.09,232.54 124.74,238.45 C126.84,245.91 127.07,247.92 126.13,250.52 C125.51,252.24 125.00,254.66 125.00,255.90 C125.00,258.74 130.16,264.00 132.94,264.00 C134.25,264.00 135.73,265.22 136.91,267.25 C140.98,274.31 148.20,283.33 151.21,285.19 C149.42,284.63 151.05,286.70 155.71,290.67 C161.06,295.24 167.82,299.96 169.00,299.97 C169.27,299.97 170.51,299.70 171.75,299.37 ZM 314.98 135.42 C314.36,132.42 313.44,130.23 312.93,130.55 C312.75,130.65 312.59,130.83 312.45,131.04 C312.88,128.69 312.88,125.55 312.08,122.87 C311.17,119.83 311.17,118.17 312.10,115.61 C313.96,110.45 312.61,107.16 307.71,104.98 C304.41,103.50 302.90,101.95 300.74,97.80 C294.30,85.42 282.83,73.58 276.75,72.48 C277.71,72.63 278.78,73.00 279.70,73.55 C281.76,74.77 281.43,74.24 278.50,71.57 C276.30,69.57 271.58,66.29 268.00,64.28 C264.42,62.26 261.23,60.23 260.91,59.75 C260.26,58.81 250.00,59.87 250.00,60.88 C250.01,61.22 254.62,63.86 260.25,66.75 C267.20,70.31 272.76,74.08 277.50,78.46 C281.35,82.01 284.64,84.94 284.80,84.96 C284.89,84.97 284.63,84.54 284.16,83.85 C288.15,88.68 292.95,95.15 295.28,99.18 C298.10,104.03 298.73,107.43 297.00,108.50 C295.67,109.32 295.73,113.31 297.11,116.34 C298.15,118.63 300.22,120.10 304.19,121.36 C305.15,121.66 306.39,123.77 307.04,126.20 C307.68,128.56 308.61,131.54 309.10,132.81 C309.68,134.27 310.29,134.73 310.84,134.49 C310.70,134.61 310.54,134.72 310.39,134.80 C309.16,135.49 309.01,136.16 309.77,137.60 C310.32,138.65 311.10,141.51 311.51,143.96 L 312.25 148.41 L 314.18 144.64 C315.89,141.31 315.98,140.23 314.98,135.42 ZM 210.00 336.30 C210.82,336.60 212.10,336.88 212.83,336.92 C214.19,337.00 219.35,332.35 220.09,330.37 C220.31,329.76 223.88,327.70 228.00,325.80 C248.87,316.18 268.51,299.85 281.11,281.63 C288.76,270.57 289.27,268.40 285.95,261.07 C283.94,256.65 283.94,256.65 282.37,258.89 C280.89,261.00 280.91,262.55 282.49,267.56 C284.34,273.45 257.57,302.50 240.87,312.72 C236.18,315.59 229.33,319.36 225.64,321.08 C219.71,323.86 218.61,324.08 216.04,323.01 C212.42,321.52 207.32,322.54 205.99,325.02 C203.86,328.99 205.94,334.83 210.00,336.30 ZM 282.25 284.19 C282.56,285.09 283.60,284.60 285.60,282.59 C288.29,279.90 288.34,279.72 286.25,280.25 C283.35,280.98 283.41,279.76 286.50,275.21 C287.88,273.19 288.96,270.63 288.91,269.52 C288.85,267.98 288.63,268.15 288.01,270.23 C287.55,271.73 285.06,276.00 282.47,279.73 C279.87,283.45 278.66,285.68 279.77,284.69 C281.31,283.31 281.90,283.19 282.25,284.19 ZM 65.08 164.86 C64.77,169.23 64.64,174.56 64.54,182.50 L 64.35 197.85 C63.74,187.39 64.00,175.58 65.08,164.86 ZM 301.73 40.55 C297.25,37.45 291.28,33.72 286.50,30.96 C291.96,33.88 297.07,37.09 301.73,40.55 ZM 366.30 138.45 C365.20,134.38 364.04,131.07 363.48,130.19 C363.94,129.91 365.05,133.33 366.30,138.45 ZM 134.74 41.98 C123.58,50.39 112.39,61.47 102.71,73.62 C106.38,69.01 110.31,64.51 114.50,60.13 C121.48,52.82 127.89,47.02 134.74,41.98 ZM 80.43 109.75 C75.70,120.09 71.85,131.13 68.98,142.56 C71.85,131.03 75.65,120.12 80.43,109.75 ZM 363.41 132.29 C363.42,132.36 363.44,132.43 363.45,132.50 C363.59,133.25 363.79,135.63 364.00,138.96 C363.70,136.32 363.49,133.91 363.41,132.29 ZM 332.83 71.04 C332.64,71.25 333.42,73.62 334.69,76.75 C333.29,73.40 332.41,71.00 332.65,71.00 C332.70,71.00 332.76,71.01 332.83,71.04 ZM 122.58 314.85 C124.38,316.47 126.58,318.37 128.55,320.02 C128.50,319.98 128.46,319.95 128.41,319.91 C126.83,318.70 124.81,316.93 122.58,314.85 ZM 290.99 174.72 C291.97,173.46 293.72,170.54 294.92,168.17 C293.29,171.39 292.05,173.49 290.99,174.72 ZM 121.52 225.05 C121.29,224.34 121.31,223.14 121.49,221.80 C121.39,222.85 121.42,223.95 121.59,225.30 C121.57,225.21 121.54,225.13 121.52,225.05 ZM 71.28 236.79 C71.91,238.76 72.52,240.47 72.98,241.53 C72.55,240.80 71.96,239.16 71.28,236.79 ZM 82.73 262.83 C83.84,265.58 84.99,267.92 85.69,268.71 C85.18,268.27 84.24,266.55 83.02,263.56 C82.92,263.31 82.83,263.07 82.73,262.83 ZM 79.48 252.31 C79.66,253.01 79.83,253.74 79.98,254.42 C80.45,256.50 81.31,259.15 82.25,261.61 C81.03,258.43 80.21,255.77 79.48,252.31 ZM 153.38 286.20 C154.11,286.48 154.71,286.65 155.19,286.70 C154.73,286.78 154.18,286.61 153.38,286.20 ZM 182.42 286.72 C182.79,286.55 183.05,286.22 183.26,285.75 C183.22,286.23 182.93,286.57 182.42,286.72 ZM 296.57 162.81 C296.75,164.12 296.28,165.50 294.96,168.10 C296.21,165.63 296.69,164.20 296.57,162.81 ZM 337.37 76.32 C336.04,74.51 334.78,72.91 333.92,71.96 C334.77,72.85 335.94,74.33 337.37,76.32 ZM 123.54 311.68 C123.89,312.31 124.80,313.32 125.97,314.42 C124.74,313.29 123.83,312.29 123.54,311.68 ZM 243.37 74.20 C245.42,72.15 256.99,71.30 257.03,73.21 C257.03,73.35 257.09,73.51 257.18,73.70 C257.07,73.51 257.01,73.34 257.01,73.21 C257.00,71.30 245.42,72.15 243.37,74.20 ZM 132.85 319.55 C133.19,319.73 133.56,319.93 133.94,320.14 C133.80,320.07 133.64,319.98 133.49,319.90 C133.28,319.79 133.07,319.67 132.85,319.55 ZM 311.76 133.38 C311.81,133.27 311.85,133.16 311.90,133.04 C311.86,133.15 311.81,133.27 311.76,133.38 Z" fill="rgb(234,93,10)"/>
<path d="M 276.96 33.79 C279.16,34.60 283.00,34.36 283.00,33.40 C283.00,33.18 282.47,32.83 281.53,32.38 C286.77,34.58 293.60,38.30 298.56,41.50 C302.47,44.20 305.41,46.71 305.53,47.76 C305.37,48.26 303.92,47.73 301.88,46.14 C297.75,42.91 288.75,38.19 281.61,35.50 C275.98,33.39 270.39,31.95 264.12,31.07 C269.41,31.74 273.96,32.67 276.96,33.79 ZM 123.54 311.68 C123.42,311.44 123.41,311.26 123.51,311.16 C123.77,310.89 124.89,311.50 125.99,312.49 L 126.00 312.50 C126.68,313.33 127.69,314.00 128.23,314.00 C128.77,314.00 131.21,315.35 133.66,317.00 C137.46,319.57 141.64,321.77 146.40,323.68 C143.79,322.72 141.47,321.75 139.65,320.82 C135.11,318.51 133.72,319.12 137.11,321.94 C137.24,322.05 137.37,322.16 137.51,322.27 C136.95,321.91 136.35,321.54 135.75,321.19 C135.36,320.92 134.76,320.58 133.94,320.14 C133.56,319.93 133.19,319.73 132.85,319.55 C130.60,318.26 127.90,316.19 125.97,314.42 C124.80,313.32 123.89,312.31 123.54,311.68 ZM 283.76 76.39 C281.52,74.83 279.43,74.02 277.60,74.04 L 274.50 74.08 L 278.11 77.29 C278.29,77.45 278.49,77.64 278.71,77.85 C278.46,77.69 278.23,77.57 278.04,77.51 C277.06,77.20 275.50,76.10 274.56,75.07 C272.94,73.28 272.96,73.15 274.88,72.54 C275.38,72.38 276.04,72.37 276.75,72.48 C278.67,72.83 281.11,74.23 283.76,76.39 ZM 121.61 220.97 C121.82,219.71 122.15,218.41 122.52,217.34 C123.83,213.85 125.40,215.05 126.35,220.57 C126.46,221.18 126.58,221.84 126.73,222.56 C126.55,222.22 126.29,222.00 126.00,222.00 C125.45,222.00 125.00,221.10 125.00,220.00 C125.00,217.42 123.38,217.43 121.99,220.01 C121.84,220.31 121.71,220.62 121.61,220.97 ZM 182.42 286.72 C181.85,286.89 181.00,286.84 179.87,286.49 C179.63,286.42 179.41,286.36 179.22,286.31 C178.71,286.12 178.13,285.89 177.49,285.61 C178.74,286.09 179.73,285.82 180.93,285.06 C182.06,284.35 181.16,282.87 176.63,277.96 C177.58,278.90 178.55,279.78 179.53,280.58 C180.24,281.16 180.86,281.72 181.39,282.25 C182.72,283.68 183.34,284.92 183.26,285.75 C183.05,286.22 182.79,286.55 182.42,286.72 ZM 71.31 236.88 C71.98,239.20 72.56,240.81 72.98,241.53 C73.32,242.32 73.59,242.75 73.71,242.62 C73.97,242.37 73.82,238.43 73.40,233.29 C73.44,233.53 73.47,233.76 73.50,234.00 C74.29,239.77 74.94,245.18 74.94,246.00 C74.94,249.13 73.30,244.49 71.31,236.88 ZM 366.30 138.45 C365.05,133.33 363.94,129.91 363.48,130.19 C363.10,129.59 363.01,130.11 363.41,132.29 C363.49,133.91 363.70,136.32 364.00,138.96 C364.06,139.81 364.11,140.73 364.17,141.70 C364.11,141.04 364.04,140.46 363.98,140.00 C363.47,136.43 362.79,131.70 362.48,129.50 C361.62,123.50 363.37,127.16 365.83,136.50 C369.51,150.45 371.06,162.68 371.21,179.02 C371.08,169.06 370.38,159.17 369.11,152.00 C368.95,151.10 368.79,150.20 368.62,149.32 C368.30,147.17 367.74,144.32 366.98,141.14 C366.76,140.22 366.53,139.32 366.30,138.45 ZM 328.29 296.21 C346.95,275.23 359.64,250.94 366.50,223.05 C361.46,244.32 352.34,264.22 339.00,283.20 C336.31,287.02 332.56,291.54 328.29,296.21 ZM 274.23 336.94 C275.63,336.29 277.05,335.61 278.50,334.89 C290.19,329.12 299.99,322.73 309.80,314.34 C306.30,317.40 302.94,320.11 299.96,322.23 C292.13,327.80 283.39,332.78 274.23,336.94 ZM 72.51 204.95 C72.86,197.87 73.70,191.23 75.10,184.35 C74.51,187.65 74.01,191.24 73.42,195.96 C73.03,199.13 72.72,202.10 72.51,204.95 ZM 169.28 269.07 C164.60,262.57 161.13,255.59 157.71,246.04 C160.96,254.89 164.90,262.71 169.28,269.07 ZM 163.91 333.04 C166.73,333.73 169.60,334.33 172.44,334.81 C174.27,335.12 176.11,335.49 177.80,335.88 C174.12,335.51 169.13,334.45 163.91,333.04 ZM 170.16 279.25 C173.11,282.37 175.05,284.23 176.56,285.14 C173.49,283.41 169.77,279.52 166.13,274.41 C167.45,276.20 168.80,277.82 170.16,279.25 ZM 149.21 238.17 C145.88,227.66 143.53,216.69 142.04,204.79 C143.48,216.28 145.98,227.68 149.21,238.17 ZM 276.81 30.52 C273.88,29.51 270.22,28.39 266.50,27.41 C265.26,27.08 264.11,26.80 262.99,26.55 C267.51,27.43 271.95,28.72 276.81,30.52 ZM 364.89 157.34 L 364.97 159.19 C364.98,160.36 364.99,161.52 364.99,162.63 C365.00,173.08 364.19,182.82 362.44,192.31 C364.19,182.71 364.98,172.83 364.95,162.13 C364.94,160.56 364.92,158.95 364.89,157.34 ZM 293.90 96.94 C291.34,93.01 287.47,87.87 284.16,83.85 C284.11,83.79 284.06,83.71 284.01,83.64 C285.10,84.92 286.18,86.25 287.15,87.50 C289.93,91.07 292.18,94.23 293.90,96.94 ZM 79.25 112.39 C75.07,121.93 71.62,132.03 69.00,142.47 C71.62,131.95 75.03,121.94 79.25,112.39 ZM 169.42 330.03 C174.53,330.96 177.83,331.16 180.27,330.62 C179.36,330.86 178.42,331.00 177.55,331.00 C175.53,331.00 172.68,330.64 169.42,330.03 ZM 78.96 169.05 C79.49,167.25 80.06,165.40 80.66,163.50 C82.40,158.04 86.60,148.15 90.57,139.71 C86.60,148.16 82.41,158.05 80.69,163.50 C80.04,165.53 79.47,167.37 78.96,169.05 ZM 244.75 25.00 C246.12,25.00 247.44,25.02 248.73,25.06 C247.54,25.03 246.28,25.02 244.92,25.02 C238.00,25.01 232.06,25.28 231.70,25.63 C232.06,25.28 237.92,25.00 244.75,25.00 ZM 189.65 339.85 C193.49,340.12 197.00,337.82 197.00,334.06 C197.00,337.88 193.45,340.17 189.65,339.85 ZM 297.65 104.42 C298.25,106.48 298.04,107.86 297.00,108.50 C298.01,107.88 298.21,106.46 297.65,104.42 ZM 155.08 238.14 C153.48,232.80 151.76,225.86 150.35,219.32 C151.74,225.79 153.46,232.67 155.08,238.14 ZM 64.46 199.58 L 64.46 199.56 C64.77,204.12 65.25,208.38 65.91,212.14 C66.10,213.22 66.29,214.29 66.48,215.33 C66.28,214.25 66.08,213.19 65.90,212.14 C65.25,208.38 64.77,204.13 64.46,199.58 ZM 79.24 112.39 C79.63,111.51 80.02,110.64 80.42,109.76 C80.03,110.63 79.63,111.51 79.24,112.39 ZM 64.05 189.49 C64.09,192.34 64.19,195.14 64.35,197.85 L 64.35 197.87 C64.19,195.15 64.09,192.35 64.05,189.49 ZM 122.16 228.53 C122.30,229.17 122.46,229.86 122.64,230.61 C122.46,229.86 122.30,229.17 122.16,228.53 Z" fill="rgb(247,206,175)"/>
<path d="M 0.00 182.50 L 0.00 0.00 L 211.50 0.00 L 423.00 0.00 L 423.00 182.50 L 423.00 365.00 L 211.50 365.00 L 0.00 365.00 L 0.00 182.50 ZM 242.98 347.49 C262.98,343.04 283.49,333.95 299.96,322.23 C312.13,313.58 330.69,295.02 339.00,283.20 C360.75,252.26 371.28,218.89 371.22,181.06 C371.19,163.69 369.66,151.02 365.83,136.50 C363.37,127.16 361.62,123.50 362.48,129.50 C362.79,131.70 363.47,136.43 363.98,140.00 C364.48,143.57 364.92,153.53 364.95,162.13 C365.04,190.76 359.22,213.55 344.87,240.74 C342.19,245.82 340.00,251.02 340.00,252.31 C340.00,257.42 318.36,284.74 301.75,300.59 C285.46,316.14 269.82,326.73 252.59,333.90 C247.79,335.90 243.43,338.52 241.48,340.59 C237.54,344.77 234.74,344.90 230.92,341.08 C227.52,337.67 227.31,336.08 229.85,332.94 C231.19,331.28 232.61,330.71 235.10,330.85 C246.31,331.47 246.35,331.46 257.00,326.15 C273.01,318.15 279.85,313.45 294.76,300.18 C309.99,286.64 333.45,258.06 334.51,251.78 C334.82,249.98 338.38,241.75 342.43,233.50 C350.59,216.88 355.79,202.41 359.18,186.82 C361.13,177.89 361.43,173.54 361.45,154.50 C361.46,133.67 361.31,131.90 358.65,121.26 C355.73,109.60 353.45,105.18 354.76,113.70 C355.17,116.34 355.50,127.95 355.50,139.50 C355.50,162.52 355.16,164.66 348.29,185.00 C343.59,198.94 338.47,210.18 328.39,228.68 C320.57,243.03 320.08,244.29 320.64,248.42 C321.17,252.27 320.92,253.17 318.67,255.42 C316.14,257.95 311.75,258.81 309.40,257.23 C307.70,256.10 306.00,252.38 306.00,249.79 C306.00,246.69 308.66,243.00 310.90,243.00 C313.47,243.00 315.02,240.94 322.55,227.50 C345.95,185.75 353.96,159.33 352.72,128.00 C351.91,107.52 348.04,92.24 340.97,81.55 C336.63,74.99 333.48,71.00 332.65,71.00 C332.21,71.00 335.60,79.23 339.04,86.50 C345.06,99.23 347.41,120.74 344.99,141.03 C341.90,166.88 334.86,184.73 308.76,232.94 C297.63,253.51 298.10,250.82 303.29,263.65 L 305.77 269.79 L 302.08 275.65 C298.99,280.54 298.45,282.19 298.79,285.70 C299.14,289.29 298.79,290.29 296.45,292.45 C294.94,293.85 292.63,295.00 291.31,295.00 C287.92,295.00 284.00,290.76 284.00,287.08 C284.00,283.82 287.26,280.00 290.03,280.00 C292.12,280.00 294.17,277.68 296.91,272.24 L 299.06 267.97 L 296.03 260.41 C294.36,256.25 293.00,252.25 293.00,251.51 C293.00,250.31 296.31,243.88 311.51,215.50 C323.81,192.55 328.74,181.62 333.85,166.00 C339.79,147.85 342.47,122.35 340.04,107.29 C338.35,96.87 336.33,88.87 334.51,85.37 C333.69,83.79 333.01,81.88 333.01,81.12 C332.99,78.54 324.61,64.51 318.10,56.19 C301.93,35.51 269.23,19.11 236.03,15.04 C209.39,11.77 183.64,16.01 159.11,27.70 C140.78,36.44 128.84,45.12 114.50,60.13 C90.15,85.61 74.73,114.84 67.38,149.50 C63.57,167.45 62.92,195.01 65.90,212.14 C68.91,229.41 74.94,252.01 74.94,246.00 C74.94,245.18 74.29,239.77 73.50,234.00 C71.66,220.58 71.64,210.31 73.42,195.96 C75.10,182.45 76.06,178.18 80.69,163.50 C83.83,153.52 95.27,128.69 98.42,125.00 C99.13,124.18 100.76,121.57 102.05,119.22 C104.19,115.32 104.29,114.55 103.20,110.46 C101.10,102.60 101.61,100.06 106.76,92.88 C124.69,67.85 141.13,52.15 165.40,36.89 C172.05,32.70 178.03,28.24 178.68,26.96 C181.22,21.98 187.65,21.09 191.25,25.22 C193.73,28.06 193.43,30.49 190.13,34.19 C187.29,37.35 187.19,37.38 183.21,36.07 C179.25,34.76 179.01,34.82 171.83,38.95 C149.26,51.95 128.77,71.14 111.62,95.33 L 106.78 102.16 L 108.39 107.90 C109.28,111.05 110.00,114.43 110.00,115.41 C110.00,116.38 107.14,121.75 103.64,127.34 C81.21,163.16 72.39,200.99 77.47,239.50 C79.18,252.45 80.06,256.25 83.02,263.56 C85.84,270.49 87.18,270.61 85.18,263.75 C84.03,259.82 83.63,253.23 83.57,237.50 C83.50,216.90 83.56,216.24 86.86,203.00 C88.70,195.57 90.84,188.50 91.61,187.29 C92.37,186.07 93.00,184.42 93.00,183.61 C93.00,181.61 112.65,143.04 117.84,134.85 C121.60,128.92 121.98,127.75 121.40,124.11 C120.52,118.59 122.64,115.38 127.55,114.80 C132.79,114.19 136.00,116.93 136.00,122.00 C136.00,124.97 135.40,126.33 133.37,127.93 C131.92,129.07 129.93,130.00 128.95,130.00 C125.44,130.00 102.96,172.66 96.06,192.40 C83.79,227.51 85.71,268.42 100.68,290.97 C104.99,297.46 121.19,314.37 128.41,319.91 C137.86,327.17 153.94,336.52 162.16,339.54 C178.32,345.49 187.71,347.94 200.00,349.39 C207.94,350.33 235.73,349.10 242.98,347.49 ZM 185.08 338.21 C183.75,337.29 178.06,335.76 172.44,334.81 C158.20,332.41 143.06,326.90 137.11,321.94 C133.72,319.12 135.11,318.51 139.65,320.82 C148.58,325.37 169.53,331.00 177.55,331.00 C179.69,331.00 182.25,330.16 183.78,328.96 C188.28,325.42 197.00,328.78 197.00,334.06 C197.00,339.33 190.13,341.72 185.08,338.21 ZM 210.00 336.30 C205.94,334.83 203.86,328.99 205.99,325.02 C207.32,322.54 212.42,321.52 216.04,323.01 C218.61,324.08 219.71,323.86 225.64,321.08 C229.33,319.36 236.18,315.59 240.87,312.72 C257.57,302.50 284.34,273.45 282.49,267.56 C280.91,262.55 280.89,261.00 282.37,258.89 C283.94,256.65 283.94,256.65 285.95,261.07 C289.27,268.40 288.76,270.57 281.11,281.63 C268.51,299.85 248.87,316.18 228.00,325.80 C223.88,327.70 220.31,329.76 220.09,330.37 C219.35,332.35 214.19,337.00 212.83,336.92 C212.10,336.88 210.82,336.60 210.00,336.30 ZM 155.83 314.97 C153.82,313.79 145.47,313.48 141.98,314.45 C137.96,315.56 134.00,311.86 134.00,306.98 C134.00,298.66 144.97,297.53 148.02,305.54 C149.12,308.44 153.65,309.84 164.61,310.67 C178.32,311.70 193.90,307.73 211.04,298.84 C231.00,288.49 252.43,269.02 266.66,248.31 C271.00,241.99 271.75,240.25 271.31,237.53 C270.31,231.34 275.14,226.96 280.67,229.06 C288.42,232.01 287.20,241.43 278.77,243.80 C277.21,244.24 273.47,248.23 268.72,254.50 C257.32,269.58 246.35,280.78 233.45,290.52 C210.24,308.04 189.41,316.04 167.18,315.97 C161.86,315.95 156.75,315.50 155.83,314.97 ZM 151.50 285.35 C148.68,283.93 141.12,274.55 136.91,267.25 C135.73,265.22 134.25,264.00 132.94,264.00 C130.16,264.00 125.00,258.74 125.00,255.90 C125.00,254.66 125.51,252.24 126.13,250.52 C127.07,247.92 126.84,245.91 124.74,238.45 C121.30,226.24 120.72,222.39 121.99,220.01 C123.38,217.43 125.00,217.42 125.00,220.00 C125.00,221.10 125.45,222.00 126.00,222.00 C126.55,222.00 127.00,222.79 126.99,223.75 C126.98,226.29 132.11,244.28 133.27,245.75 C133.80,246.44 135.01,247.00 135.95,247.00 C140.41,247.00 143.45,254.42 140.93,259.14 C140.04,260.79 140.57,262.31 143.92,267.82 C146.15,271.49 150.00,276.75 152.46,279.50 C158.25,285.95 157.82,288.54 151.50,285.35 ZM 170.16 279.25 C157.28,265.66 145.90,235.52 142.04,204.79 C141.38,199.56 140.65,197.45 139.14,196.38 C137.18,195.01 137.17,194.84 138.81,191.20 C141.06,186.19 144.45,182.00 146.24,182.00 C150.82,182.00 152.85,192.02 148.97,195.53 C147.20,197.13 147.02,198.14 147.56,203.43 C148.45,212.07 152.70,231.03 155.98,241.00 C161.58,258.01 166.76,267.30 176.52,277.85 C181.15,282.85 182.06,284.35 180.93,285.06 C178.15,286.83 176.48,285.93 170.16,279.25 ZM 205.50 277.60 C198.62,275.43 194.84,272.97 187.84,266.12 C179.89,258.34 175.41,251.28 170.44,238.70 C163.36,220.80 160.84,206.67 160.78,184.50 C160.74,166.93 162.47,156.07 168.12,138.33 C177.39,109.23 190.41,89.86 205.79,82.26 C212.77,78.81 214.07,78.50 221.62,78.56 C228.94,78.61 230.57,78.99 236.61,82.05 C245.13,86.38 254.10,95.16 260.06,105.00 C271.57,124.03 276.46,143.61 277.67,175.50 C278.29,191.98 277.67,197.25 273.26,213.00 C271.60,218.92 265.97,230.98 261.78,237.58 C252.73,251.83 231.35,274.07 223.20,277.70 C219.70,279.27 210.59,279.21 205.50,277.60 ZM 287.59 175.45 C285.39,173.25 285.60,167.78 288.00,164.73 C290.49,161.56 290.49,159.05 288.03,146.50 C282.27,117.13 274.44,97.67 264.36,87.66 C258.07,81.43 255.37,80.20 251.98,82.01 C250.18,82.97 249.15,82.86 246.38,81.37 C242.35,79.19 241.17,76.40 243.37,74.20 C245.42,72.15 257.00,71.30 257.01,73.21 C257.01,73.92 258.67,75.62 260.69,77.00 C267.84,81.87 275.89,91.81 280.14,101.00 C285.95,113.59 293.33,139.74 294.52,152.00 C294.87,155.57 295.60,159.69 296.15,161.14 C296.95,163.24 296.70,164.67 294.94,168.14 C293.72,170.54 291.93,173.52 290.95,174.77 C289.33,176.84 289.05,176.90 287.59,175.45 ZM 309.10 132.81 C308.61,131.54 307.68,128.56 307.04,126.20 C306.39,123.77 305.15,121.66 304.19,121.36 C300.22,120.10 298.15,118.63 297.11,116.34 C295.73,113.31 295.67,109.32 297.00,108.50 C299.86,106.73 296.46,99.47 287.15,87.50 C284.16,83.65 280.09,79.05 278.11,77.29 L 274.50 74.08 L 277.60 74.04 C283.63,73.96 292.48,83.02 300.65,97.61 C303.05,101.90 304.76,103.66 307.86,105.05 C312.61,107.17 313.94,110.51 312.10,115.61 C311.17,118.17 311.17,119.83 312.08,122.87 C314.01,129.32 311.30,138.40 309.10,132.81 ZM 141.14 109.37 C140.03,105.59 138.40,99.64 137.51,96.14 L 135.89 89.78 L 141.04 81.94 C152.94,63.82 174.85,45.92 197.65,35.69 C203.17,33.22 206.19,31.18 207.82,28.84 C210.63,24.79 212.12,23.89 216.20,23.78 C219.80,23.67 223.00,26.85 223.00,30.53 C223.00,31.81 221.80,34.27 220.34,36.01 C217.59,39.28 217.29,39.32 209.91,37.47 C207.95,36.99 204.75,38.10 196.93,41.99 C176.88,51.95 160.92,64.78 149.12,80.41 L 141.81 90.10 L 144.01 98.25 C147.62,111.64 144.90,122.19 141.14,109.37 ZM 164.04 105.81 C160.03,101.51 162.63,93.00 167.96,93.00 C169.22,93.00 172.53,89.73 177.34,83.75 C181.42,78.66 186.73,72.63 189.13,70.35 C200.88,59.19 217.15,49.61 233.00,44.50 C240.46,42.10 243.15,41.75 255.00,41.69 C267.93,41.61 268.88,41.75 277.50,44.95 C282.61,46.84 288.16,48.23 290.35,48.16 C294.22,48.03 297.88,49.36 299.23,51.40 C300.79,53.74 299.98,58.67 297.69,60.83 C293.27,64.97 286.00,62.27 286.00,56.49 C286.00,54.42 285.06,53.54 280.75,51.58 C272.53,47.83 264.34,46.64 251.18,47.28 C242.21,47.71 237.64,48.47 231.50,50.55 C211.61,57.27 193.73,70.51 180.36,88.40 C175.78,94.53 175.31,95.60 176.08,98.28 C177.01,101.53 176.76,102.33 173.68,105.75 C171.08,108.64 166.70,108.67 164.04,105.81 ZM 276.96 33.79 C270.88,31.53 258.48,30.00 246.29,30.00 C234.40,30.00 232.97,29.81 232.07,28.13 C231.52,27.10 231.35,25.98 231.70,25.63 C232.05,25.28 238.00,25.01 244.92,25.02 C254.90,25.04 259.36,25.53 266.50,27.41 C274.92,29.62 283.00,32.55 283.00,33.40 C283.00,34.36 279.16,34.60 276.96,33.79 Z" fill="none"/>
</g>
</svg>